<svg version="1.1" id="Layer_1" xmlns="http://www.w3.org/2000/svg" x="0" y="0" viewBox="0 0 64 64" xml:space="preserve"><style type="text/css">.st0{fill:#A69051}</style><path class="st0" d="M12.7 49.9v-1.2c2.5-.2 4.4-1.9 4.4-3.9s-1.9-3.6-4.4-3.9v-5.4c.8.1 1.6.4 2.1.9.3.2.7.3 1 0 .3-.2.3-.6.1-.9-.8-.8-2-1.2-3.2-1.3v-1.3c0-.3-.3-.6-.7-.6s-.7.3-.7.6v1.3c-2.3.3-4.1 1.9-4.1 3.8s1.8 3.5 4.1 3.8v5.4c-1.5-.3-2.7-1.3-2.7-2.6 0-.3-.3-.6-.7-.6-.4 0-.7.3-.7.6 0 1.9 1.8 3.5 4.1 3.8v1.3c0 .3.3.6.7.6.4.2.7-.1.7-.4zm0-7.8c1.7.2 2.9 1.3 2.9 2.6s-1.3 2.4-2.9 2.6v-5.2zm-1.5-1.3c-1.5-.3-2.7-1.3-2.7-2.6s1.1-2.3 2.7-2.6v5.2zm35.4-19.9h17.1V60H46.6z"/><path class="st0" d="M34.2 2.5C32.9.2 30.1-.6 27.8.6c-2.3 1.3-3.1 4.1-1.9 6.4l1.4 2.5L23.8 6c-1.9-1.9-4.9-1.9-6.7 0-1.9 1.9-1.9 4.9 0 6.7l6.9 6.9c-.6-.1-1.1-.1-1.7-.1-3.7 0-7.2 1.1-10.4 3.2-2.2 1.5-2.8 4.4-1.3 6.6l.3.3C4.9 30.3.2 35.4.2 41.5c0 6.3 4.9 11.4 11.1 11.8-.3.3-.6.6-.8.9-1.5 2.2-.9 5.2 1.4 6.6C15 62.9 18.6 64 22.3 64c4.2 0 8.2-1.5 11.4-3.9h10.8V20.9h-.2L34.2 2.5zM2 41.5c0-5.6 4.5-10.1 10.1-10.1s10.1 4.5 10.1 10.1-4.5 10.1-10.1 10.1S2 47.1 2 41.5zm20.3 12.9c-1.8 0-3.5-.5-5.1-1.6-.2-.1-.5-.3-.7-.4 4.4-1.8 7.4-6 7.4-11 0-4.7-2.8-8.8-6.8-10.7 0 0 .1 0 .1-.1 1.6-1 3.3-1.6 5-1.6 5.8 0 10.6 5.7 10.6 12.6 0 7.1-4.7 12.8-10.5 12.8z"/></svg>