<svg version="1.1" id="Layer_1" xmlns="http://www.w3.org/2000/svg" x="0" y="0" viewBox="0 0 64 64" xml:space="preserve"><style type="text/css">.st0{fill:#A69051}</style><path class="st0" d="M49.9 39.2c-2.8 5.7-5.1 12.2-6.2 16-.6 2.1-2.6 3.6-4.9 3.6h-.2c-2.3-.1-4.3-1.7-4.8-3.9-1.8-7.9-5.8-11-6.2-11.3l-.1-.1c-2.2-1.8-2.5-5-.7-7.1 1-1.2 2.4-1.9 3.9-1.9 1.1 0 2.2.4 3.1 1.1 1.4 1 2.9 2.6 4.3 4.8 3-7.1 6.9-14.4 11.7-18.9L48.8 9h-9.9c-.2-5-4.3-9-9.4-9-5.1 0-9.2 4-9.4 9H9.4L4.5 64h49.2l-2.5-27.4c-.5 1-1 1.9-1.3 2.6zM37.7 13.1c.7 0 1.2.6 1.2 1.2 0 .7-.5 1.2-1.2 1.2s-1.2-.5-1.2-1.2c0-.6.5-1.2 1.2-1.2zM29.5 2.2c3.8 0 7 3 7.2 6.8H22.3c.2-3.8 3.3-6.8 7.2-6.8zm-8.2 13.4c-.7 0-1.2-.5-1.2-1.2s.6-1.2 1.2-1.2c.7 0 1.2.6 1.2 1.2s-.5 1.2-1.2 1.2z"/><path class="st0" d="M59.4 21.7c-.5-1.2-1.9-1.9-3.1-1.4-8.1 3.1-14.4 17.4-17.6 26.2-3.7-7.3-6.1-8.6-6.4-8.8-1-.8-2.5-.7-3.4.3-.8 1-.7 2.5.3 3.4.1.1 5.1 3.5 7.2 12.9.2 1.1 1.2 1.8 2.3 1.9h.1c1.1 0 2-.7 2.3-1.7 2.1-7.2 9.3-26.7 16.9-29.6 1.2-.6 1.8-2 1.4-3.2z"/></svg>