<svg version="1.1" id="Layer_1" xmlns="http://www.w3.org/2000/svg" x="0" y="0" viewBox="0 0 64 64" xml:space="preserve"><style type="text/css">.st0{fill:#A69051}</style><path class="st0" d="M60.8 0H3.2C1.5 0 0 1.5 0 3.2v44.3c0 1.7 1.5 3.2 3.2 3.2h21.4l-2.7 5.6h-1.2c-3.7 0-6.7 3-6.7 6.7 0 .6.4 1 1 1h34c.6 0 1-.4 1-1v-.2c-.1-3.6-3.1-6.5-6.7-6.5h-1.2l-2.7-5.6h21.4c1.7 0 3.2-1.5 3.2-3.2V3.2C64 1.5 62.5 0 60.8 0zM3.2 1.9h57.6c.7 0 1.3.6 1.3 1.3v35.4H1.9V3.2c0-.7.6-1.3 1.3-1.3zm44.7 60.2H16.1c.5-2.1 2.3-3.8 4.7-3.8h22.6c2.2 0 4.1 1.6 4.5 3.8zM40 56.3H24l2.7-5.6h10.4l2.9 5.6zm20.8-7.5H3.2c-.7 0-1.3-.5-1.3-1.3v-7.1H62v7.1c.1.8-.5 1.3-1.2 1.3z"/><path class="st0" d="M32 41.3c-1.7 0-3.2 1.5-3.2 3.2 0 1.7 1.5 3.2 3.2 3.2s3.2-1.5 3.2-3.2c0-1.7-1.5-3.2-3.2-3.2zm0 4.5c-.7 0-1.3-.6-1.3-1.3 0-.7.6-1.3 1.3-1.3.7 0 1.3.6 1.3 1.3 0 .8-.6 1.3-1.3 1.3zM7.2 36h28.9c.6 0 1-.4 1-1V6.1c0-.6-.4-1-1-1H7.2c-.6 0-1 .4-1 1V35c0 .5.5 1 1 1zm.9-28.9h27v27h-27v-27z"/><path class="st0" d="M30.9 10.2H12.5c-.6 0-1 .4-1 1s.4 1 1 1h18.4c.6 0 1-.4 1-1s-.5-1-1-1zm0 4.8H12.5c-.6 0-1 .4-1 1s.4 1 1 1h18.4c.6 0 1-.4 1-1 0-.5-.5-1-1-1zm0 5H12.5c-.6 0-1 .4-1 1s.4 1 1 1h18.4c.6 0 1-.4 1-1s-.5-1-1-1zm0 4.8H12.5c-.6 0-1 .4-1 1s.4 1 1 1h18.4c.6 0 1-.4 1-1s-.5-1-1-1zm0 4.9H12.5c-.6 0-1 .4-1 1s.4 1 1 1h18.4c.6 0 1-.4 1-1 0-.5-.5-1-1-1zm10.7-7h14.6c.6 0 1-.4 1-1v-14c0-.6-.4-1-1-1H41.6c-.6 0-1 .4-1 1v14.2c0 .4.5.8 1 .8zm1-14.1h12.7v12.2H42.6V8.6z"/><path class="st0" d="M52.6 11.3l-5.2 4.9-1.7-2.5c-.3-.5-.9-.6-1.4-.3-.5.3-.6.9-.3 1.4l2.3 3.6c.2.2.4.4.7.4s.6-.1.8-.3l6-5.7c.4-.4.4-1 0-1.4-.3-.3-.9-.3-1.2-.1zm3.3 15.6H42.1c-.6 0-1 .4-1 1V35c0 .6.4 1 1 1h13.8c.6 0 1-.4 1-1v-7.2c-.1-.5-.5-.9-1-.9zm-1 7.1H43.1v-5.2h11.8V34z"/></svg>