<svg version="1.1" id="Layer_1" xmlns="http://www.w3.org/2000/svg" x="0" y="0" viewBox="0 0 64 64" xml:space="preserve"><style type="text/css">.st0{fill:#A69051}</style><path class="st0" d="M43.8 15.1c.9 0 1.6.7 1.6 1.6 0 .9-.7 1.6-1.6 1.6h-6.3c-.9 0-1.6-.7-1.6-1.6 0-.9.7-1.6 1.6-1.6h6.3zm5.4 19.6c-.6-.2-1.2-.4-1.9-.4-.5 0-1.1.1-1.6.3v-.3c0-2.2-1.2-3.7-2.8-4.3-.6-.2-1.2-.4-1.9-.4-.6 0-1.1.1-1.7.3-.3-1.6-1.4-2.7-2.7-3.2-.6-.2-1.2-.4-1.9-.4-.5 0-1.1.1-1.6.3v-7.3c0-4.4-5.1-5.9-7.8-3.5-1.1 1-1.6 2.2-1.6 3.5v9.8c-1.4-1-3.1-1.1-4.7-1.1-.9 0-1.6.7-1.6 1.6v17.2c0 4.7 1.9 9.1 5.1 12.2 3.1 3.1 7.4 5.1 12.2 5.1 4.7 0 9.1-1.9 12.2-5.1C50 55.9 52 51.6 52 46.8V39c.1-2.2-1.2-3.6-2.8-4.3zm-.3 12.1c0 3.9-1.6 7.4-4.1 10-2.6 2.6-6.1 4.1-10 4.1-3.9 0-7.4-1.6-10-4.1-2.6-2.6-4.1-6.1-4.1-10V31.2c.6.1 1.2.3 1.7.7.9.7 1.5 2.3 1.5 5.2 0 2.1 3.1 2.1 3.1 0V19.2c0-.5.2-.8.5-1 .7-.6 2.7-.6 2.7 1.2v16.4c0 .9.7 1.6 1.6 1.6.9 0 1.6-.7 1.6-1.6V31c0-.7.4-1.2.9-1.4.2-.1.5-.1.7-.1.2 0 .5 0 .7.1.5.2.9.7.9 1.4v8c0 .9.7 1.6 1.6 1.6.9 0 1.6-.7 1.6-1.6v-4.7c0-.7.4-1.2.9-1.4.2-.1.5-.1.7-.1.2 0 .5 0 .7.1.5.2.9.7.9 1.4v7.9c0 .9.7 1.6 1.6 1.6.9 0 1.6-.7 1.6-1.6V39c0-.7.4-1.2.9-1.4.2-.1.5-.1.7-.1s.5 0 .7.1c.5.2.9.7.9 1.4v7.8zM19.8 15.1c.9 0 1.6.7 1.6 1.6 0 .9-.7 1.6-1.6 1.6h-6.3c-.9 0-1.6-.7-1.6-1.6 0-.9.7-1.6 1.6-1.6h6.3zM36 11.5c-.6.6-1.6.6-2.2 0-.6-.6-.6-1.6 0-2.2l4.4-4.4c.6-.6 1.6-.6 2.2 0 .6.6.6 1.6 0 2.2L36 11.5zM23.5 9.3c.6.6.6 1.6 0 2.2-.6.6-1.6.6-2.2 0l-4.4-4.4c-.6-.6-.6-1.6 0-2.2.6-.6 1.6-.6 2.2 0l4.4 4.4zm6.7-1.5c0 .9-.7 1.6-1.6 1.6S27 8.7 27 7.8V1.6c0-.9.7-1.6 1.6-1.6s1.6.7 1.6 1.6v6.2z"/></svg>